{"title":"Screwed.[2011].DvdRip.XviD-Kna","uid":6780557,"size":1566085120,"categoryP":"video","categoryS":"movies","magnet":"?xt=urn:btih:55d18d0b033590ee5428a949636e34e384a9d3dc&amp;dn=Screwed.%5B2011%5D.DvdRip.XviD-Kna&amp;tr=udp%3A%2F%2Ftracker.openbittorrent.com%3A80&amp;tr=udp%3A%2F%2Fopen.demonii.com%3A1337&amp;tr=udp%3A%2F%2Ftracker.coppersurfer.tk%3A6969&amp;tr=udp%3A%2F%2Fexodus.desync.com%3A6969","seeders":0,"leechers":0,"uploader":"Jon.Pson","files":-1,"time":1319884377,"description":"The film is a semi-biographical story based on the experiences of former prison guard Ronnie Thompson who spent seven years working in some of the UK's most dangerous prisons. Based on Thompson's book of the same name, the project stars James D'Arcy (Master &amp; Commander), Noel Clarke (Kidulthood), Frank Harper (The Football Factory), Jamie Foreman (Layer Cake), Andrew Shim (This Is England) and Kate Magowan (Stardust). The story revolves around former soldier Sam Norwood who takes a job as a prison officer when he returns from Iraq and becomes exposed to the underworld of prison culture - including corrupt guards and drug trafficking.\n\n\n\nGeneral\nComplete name                    : Screwed.[2011].DvdRip.XviD-KnÃƒÂ£\\Screwed.[2011].DvdRip.XviD-KnÃƒÂ£.avi\nFormat                           : AVI\nFormat/Info                      : Audio Video Interleave\nFile size                        : 1.46 GiB\nDuration                         : 1h 45mn\nOverall bit rate                 : 1 976 Kbps\nWriting application              : VirtualDubMod 1.5.4.1 (build 2178/release)\nWriting library                  : VirtualDubMod build 2178/release\n\nVideo\nID                               : 0\nFormat                           : MPEG-4 Visual\nFormat profile                   : Advanced Simple@L5\nFormat settings, BVOP            : No\nFormat settings, QPel            : No\nFormat settings, GMC             : No warppoints\nFormat settings, Matrix          : Custom\nCodec ID                         : XVID\nCodec ID/Hint                    : XviD\nDuration                         : 1h 45mn\nBit rate                         : 1 522 Kbps\nWidth                            : 720 pixels\nHeight                           : 304 pixels\nDisplay aspect ratio             : 2.35:1\nFrame rate                       : 25.000 fps\nColor space                      : YUV\nChroma subsampling               : 4:2:0\nBit depth                        : 8 bits\nScan type                        : Progressive\nCompression mode                 : Lossy\nBits/(Pixel*Frame)               : 0.278\nStream size                      : 1.12 GiB (77%)\nWriting library                  : XviD 1.2.1 (UTC 2008-12-04)\n\nAudio\nID                               : 1\nFormat                           : AC-3\nFormat/Info                      : Audio Coding 3\nMode extension                   : CM (complete main)\nCodec ID                         : 2000\nDuration                         : 1h 45mn\nBit rate mode                    : Constant\nBit rate                         : 448 Kbps\nChannel(s)                       : 6 channels\nChannel positions                : Front: L C R, Side: L R, LFE\nSampling rate                    : 48.0 KHz\nBit depth                        : 16 bits\nCompression mode                 : Lossy\nStream size                      : 338 MiB (23%)\nAlignment                        : Split accross interleaves\nInterleave, duration             : 96 ms (2.40 video frames)\nInterleave, preload duration     : 96 ms\nLanguage                         : English\n\n","torrent":{"xt":"urn:btih:55d18d0b033590ee5428a949636e34e384a9d3dc","amp;dn":"Screwed.%5B2011%5D.DvdRip.XviD-Kna","amp;tr":["udp%3A%2F%2Ftracker.openbittorrent.com%3A80","udp%3A%2F%2Fopen.demonii.com%3A1337","udp%3A%2F%2Ftracker.coppersurfer.tk%3A6969","udp%3A%2F%2Fexodus.desync.com%3A6969"],"infoHash":"55d18d0b033590ee5428a949636e34e384a9d3dc","infoHashBuffer":{"type":"Buffer","data":[85,209,141,11,3,53,144,238,84,40,169,73,99,110,52,227,132,169,211,220]},"announce":[],"urlList":[]}}